<?xml version="1.0" standalone="no"?>
<!DOCTYPE svg PUBLIC "-//W3C//DTD SVG 20010904//EN"
 "http://www.w3.org/TR/2001/REC-SVG-20010904/DTD/svg10.dtd">
<svg version="1.0" xmlns="http://www.w3.org/2000/svg"
 width="200.000000pt" height="200.000000pt" viewBox="0 0 200.000000 200.000000"
 preserveAspectRatio="xMidYMid meet">

<g transform="translate(0.000000,200.000000) scale(0.100000,-0.100000)"
fill="#000000" stroke="none">
<path d="M953 1249 c-43 -13 -90 -62 -104 -109 -16 -53 -4 -105 34 -146 31
-33 33 -34 72 -23 22 6 47 17 55 25 13 14 13 17 -4 30 -11 8 -30 14 -42 14
-16 0 -24 7 -28 28 -8 36 6 124 20 129 7 2 19 -17 28 -43 22 -67 61 -129 95
-153 27 -19 29 -20 44 -3 101 111 -24 295 -170 251z m141 -75 c20 -20 20 -29
0 -49 -23 -22 -73 -4 -74 27 0 12 31 38 45 38 7 0 21 -7 29 -16z"/>
<path d="M1050 1150 c0 -5 7 -10 15 -10 8 0 15 5 15 10 0 6 -7 10 -15 10 -8 0
-15 -4 -15 -10z"/>
<path d="M190 875 c0 -21 5 -35 13 -35 7 0 12 14 12 35 0 21 -5 35 -12 35 -8
0 -13 -14 -13 -35z"/>
<path d="M245 875 c0 -32 3 -35 28 -35 51 0 47 62 -4 68 -21 3 -24 -1 -24 -33z
m45 0 c0 -14 -4 -25 -10 -25 -5 0 -10 11 -10 25 0 14 5 25 10 25 6 0 10 -11
10 -25z"/>
<path d="M370 875 c0 -30 3 -35 24 -35 31 0 36 8 29 43 -7 37 -21 35 -17 -3 2
-16 -1 -30 -6 -30 -6 0 -10 14 -10 30 0 17 -4 30 -10 30 -5 0 -10 -16 -10 -35z"/>
<path d="M810 895 c0 -22 38 -57 46 -43 4 6 -2 17 -12 25 -10 8 -18 19 -16 24
1 5 -2 9 -8 9 -5 0 -10 -7 -10 -15z"/>
<path d="M950 875 c0 -19 5 -35 10 -35 6 0 10 16 10 35 0 19 -4 35 -10 35 -5
0 -10 -16 -10 -35z"/>
<path d="M1171 894 c0 -11 3 -14 6 -6 3 7 2 16 -1 19 -3 4 -6 -2 -5 -13z"/>
<path d="M1330 906 c0 -15 24 -66 31 -66 11 0 11 0 -2 39 -6 17 -15 31 -20 31
-5 0 -9 -2 -9 -4z"/>
<path d="M1536 890 c-22 -23 -15 -50 14 -50 16 0 20 6 20 35 0 39 -7 42 -34
15z m11 -32 c-3 -8 -6 -5 -6 6 -1 11 2 17 5 13 3 -3 4 -12 1 -19z"/>
<path d="M1190 885 c0 -8 -4 -15 -10 -15 -5 0 -10 -7 -10 -15 0 -8 7 -15 16
-15 9 0 12 5 8 13 -6 10 -4 10 7 0 7 -7 20 -13 28 -13 11 0 10 4 -5 14 -10 8
-15 18 -11 22 4 5 13 2 18 -6 9 -12 10 -12 5 3 -3 10 -6 21 -6 23 0 2 -9 4
-20 4 -11 0 -20 -7 -20 -15z"/>
<path d="M454 876 c-7 -19 3 -36 22 -36 13 0 13 2 -1 16 -9 9 -13 19 -10 22 3
4 11 0 16 -8 9 -13 10 -13 7 -1 -6 21 -27 25 -34 7z"/>
<path d="M515 880 c-3 -5 -1 -10 4 -10 6 0 11 5 11 10 0 6 -2 10 -4 10 -3 0
-8 -4 -11 -10z"/>
<path d="M540 871 c0 -15 -4 -19 -17 -14 -11 4 -14 3 -9 -5 12 -20 46 -14 46
7 0 11 -4 23 -10 26 -5 3 -10 -3 -10 -14z"/>
<path d="M585 878 c-9 -22 1 -38 26 -38 14 0 19 7 19 26 0 27 -19 24 -21 -4
-1 -10 -4 -7 -9 8 -6 21 -8 22 -15 8z"/>
<path d="M660 865 c0 -14 3 -25 8 -25 4 0 7 11 7 25 0 14 -3 25 -7 25 -5 0 -8
-11 -8 -25z"/>
<path d="M712 865 c12 -27 34 -35 24 -9 -3 9 -6 20 -6 25 0 5 -7 9 -15 9 -12
0 -13 -4 -3 -25z"/>
<path d="M884 879 c-4 -8 -3 -9 4 -5 7 4 12 2 12 -3 0 -6 -4 -11 -10 -11 -5 0
-10 -4 -10 -10 0 -5 9 -10 21 -10 15 0 20 5 17 22 -3 25 -23 35 -34 17z"/>
<path d="M994 875 c-3 -8 -2 -20 2 -27 6 -9 10 -6 15 12 l7 25 1 -24 c1 -19 4
-22 12 -14 15 15 4 43 -16 43 -9 0 -18 -7 -21 -15z"/>
<path d="M1067 883 c-11 -10 -8 -43 3 -43 6 0 10 11 10 25 0 26 -2 29 -13 18z"/>
<path d="M1090 866 c0 -14 5 -26 10 -26 6 0 10 9 10 19 0 11 -4 23 -10 26 -6
4 -10 -5 -10 -19z"/>
<path d="M1394 875 c-8 -19 3 -35 24 -34 11 0 12 3 5 6 -7 2 -13 11 -13 19 0
8 6 11 17 7 11 -4 14 -3 9 5 -10 17 -36 15 -42 -3z"/>
<path d="M1480 870 c0 -12 -4 -18 -10 -15 -5 3 -10 1 -10 -4 0 -6 9 -11 20
-11 21 0 29 33 10 45 -5 3 -10 -3 -10 -15z"/>
<path d="M1600 875 c-14 -17 -5 -35 18 -34 11 0 12 3 5 6 -7 2 -13 11 -13 19
0 8 6 11 17 7 11 -4 14 -3 9 5 -10 16 -21 15 -36 -3z"/>
<path d="M1667 883 c-11 -10 -8 -43 3 -43 6 0 10 11 10 25 0 26 -2 29 -13 18z"/>
<path d="M1690 866 c0 -14 5 -26 10 -26 6 0 10 9 10 19 0 11 -4 23 -10 26 -6
4 -10 -5 -10 -19z"/>
<path d="M1720 866 c0 -14 5 -26 10 -26 6 0 10 9 10 19 0 11 -4 23 -10 26 -6
4 -10 -5 -10 -19z"/>
<path d="M1772 864 c10 -21 9 -27 -3 -35 -9 -6 -10 -9 -2 -9 21 0 33 33 18 53
-18 26 -26 21 -13 -9z"/>
</g>
</svg>
